Animal-Bold.ufo
<glyph name="dollar" format="2">
	<advance width="600"/>
	<unicode hex="0024"/>
	<outline>
		<contour>
			<point x="314" y="528" type="curve" smooth="yes"/>
			<point x="381" y="528"/>
			<point x="420" y="493"/>
			<point x="420" y="442" type="curve"/>
			<point x="437" y="496" type="line"/>
			<point x="407" y="496"/>
			<point x="387" y="477"/>
			<point x="387" y="448" type="curve" smooth="yes"/>
			<point x="387" y="416"/>
			<point x="410" y="395"/>
			<point x="445" y="395" type="curve" smooth="yes"/>
			<point x="480" y="395"/>
			<point x="503" y="420"/>
			<point x="503" y="459" type="curve" smooth="yes"/>
			<point x="503" y="558"/>
			<point x="427" y="623"/>
			<point x="308" y="623" type="curve" smooth="yes"/>
			<point x="188" y="623"/>
			<point x="108" y="556"/>
			<point x="108" y="456" type="curve" smooth="yes"/>
			<point x="108" y="246"/>
			<point x="392" y="260"/>
			<point x="392" y="162" type="curve" smooth="yes"/>
			<point x="392" y="116"/>
			<point x="355" y="86"/>
			<point x="299" y="86" type="curve" smooth="yes"/>
			<point x="224" y="86"/>
			<point x="195" y="130"/>
			<point x="166" y="146" type="curve" smooth="yes"/>
			<point x="114" y="186"/>
			<point x="66" y="143"/>
			<point x="101" y="85" type="curve" smooth="yes"/>
			<point x="120" y="32"/>
			<point x="193" y="-10"/>
			<point x="303" y="-10" type="curve" smooth="yes"/>
			<point x="428" y="-10"/>
			<point x="512" y="61"/>
			<point x="512" y="169" type="curve" smooth="yes"/>
			<point x="512" y="345"/>
			<point x="225" y="318"/>
			<point x="225" y="463" type="curve" smooth="yes"/>
			<point x="225" y="501"/>
			<point x="260" y="528"/>
		</contour>
		<contour>
			<point x="254" y="300" type="line"/>
			<point x="254" y="-40" type="line" smooth="yes"/>
			<point x="254" y="-76"/>
			<point x="276" y="-100"/>
			<point x="309" y="-100" type="curve" smooth="yes"/>
			<point x="342" y="-100"/>
			<point x="364" y="-76"/>
			<point x="364" y="-40" type="curve" smooth="yes"/>
			<point x="364" y="298" type="line"/>
		</contour>
		<contour>
			<point x="362" y="298" type="line"/>
			<point x="362" y="660" type="line" smooth="yes"/>
			<point x="362" y="696"/>
			<point x="340" y="720"/>
			<point x="307" y="720" type="curve" smooth="yes"/>
			<point x="274" y="720"/>
			<point x="252" y="696"/>
			<point x="252" y="660" type="curve" smooth="yes"/>
			<point x="252" y="302" type="line"/>
		</contour>
	</outline>
</glyph>
<glyph name="period" format="2">
	<advance width="205"/>
	<unicode hex="002E"/>
	<outline>
		<contour>
			<point x="102" y="-10" type="curve" smooth="yes"/>
			<point x="143" y="-10"/>
			<point x="173" y="24"/>
			<point x="173" y="62" type="curve" smooth="yes"/>
			<point x="173" y="97"/>
			<point x="139" y="130"/>
			<point x="102" y="130" type="curve" smooth="yes"/>
			<point x="64" y="130"/>
			<point x="33" y="96"/>
			<point x="33" y="61" type="curve" smooth="yes"/>
			<point x="33" y="24"/>
			<point x="64" y="-10"/>
		</contour>
	</outline>
</glyph>
<glyph name="one" format="2">
	<advance width="325"/>
	<unicode hex="0031"/>
	<outline>
		<contour>
			<point x="194" y="-10" type="curve" smooth="yes"/>
			<point x="230" y="-9"/>
			<point x="254" y="19"/>
			<point x="254" y="60" type="curve"/>
			<point x="255" y="648" type="line" smooth="yes"/>
			<point x="255" y="685"/>
			<point x="233" y="710"/>
			<point x="196" y="710" type="curve" smooth="yes"/>
			<point x="157" y="710"/>
			<point x="116" y="684"/>
			<point x="73" y="660" type="curve" smooth="yes"/>
			<point x="37" y="641"/>
			<point x="9" y="622"/>
			<point x="9" y="592" type="curve" smooth="yes"/>
			<point x="9" y="561"/>
			<point x="25" y="544"/>
			<point x="46" y="544" type="curve" smooth="yes"/>
			<point x="71" y="544"/>
			<point x="92" y="557"/>
			<point x="121" y="571" type="curve" smooth="yes"/>
			<point x="149" y="585"/>
			<point x="175" y="600"/>
			<point x="199" y="614" type="curve"/>
			<point x="135" y="637" type="line"/>
			<point x="134" y="59" type="line"/>
			<point x="134" y="18"/>
			<point x="158" y="-10"/>
		</contour>
	</outline>
</glyph>
<glyph name="two" format="2">
	<advance width="451"/>
	<unicode hex="0032"/>
	<outline>
		<contour>
			<point x="78" y="0" type="curve" smooth="yes"/>
			<point x="373" y="0" type="line" smooth="yes"/>
			<point x="412" y="0"/>
			<point x="439" y="19"/>
			<point x="439" y="47" type="curve" smooth="yes"/>
			<point x="439" y="76"/>
			<point x="412" y="95"/>
			<point x="372" y="95" type="curve" smooth="yes"/>
			<point x="79" y="95" type="line"/>
			<point x="138" y="43" type="line"/>
			<point x="245" y="200"/>
			<point x="434" y="366"/>
			<point x="434" y="527" type="curve" smooth="yes"/>
			<point x="434" y="637"/>
			<point x="351" y="710"/>
			<point x="228" y="710" type="curve" smooth="yes"/>
			<point x="121" y="710"/>
			<point x="42" y="657"/>
			<point x="42" y="577" type="curve" smooth="yes"/>
			<point x="42" y="530"/>
			<point x="70" y="499"/>
			<point x="111" y="499" type="curve" smooth="yes"/>
			<point x="152" y="499"/>
			<point x="180" y="522"/>
			<point x="180" y="557" type="curve"/>
			<point x="180" y="588"/>
			<point x="157" y="608"/>
			<point x="123" y="608" type="curve"/>
			<point x="148" y="563" type="line"/>
			<point x="148" y="591"/>
			<point x="164" y="610"/>
			<point x="205" y="610" type="curve" smooth="yes"/>
			<point x="259" y="610"/>
			<point x="316" y="573"/>
			<point x="316" y="518" type="curve" smooth="yes"/>
			<point x="316" y="384"/>
			<point x="182" y="306"/>
			<point x="44" y="96" type="curve" smooth="yes"/>
			<point x="8" y="41"/>
			<point x="39" y="0"/>
		</contour>
	</outline>
</glyph>
<glyph name="six" format="2">
	<advance width="525"/>
	<unicode hex="0036"/>
	<outline>
		<contour>
			<point x="275" y="-10" type="curve" smooth="yes"/>
			<point x="395" y="-10"/>
			<point x="480" y="88"/>
			<point x="480" y="236" type="curve" smooth="yes"/>
			<point x="480" y="376"/>
			<point x="417" y="470"/>
			<point x="330" y="470" type="curve" smooth="yes"/>
			<point x="279" y="470"/>
			<point x="232" y="442"/>
			<point x="201" y="395" type="curve"/>
			<point x="199" y="397" type="line"/>
			<point x="235" y="493"/>
			<point x="309" y="574"/>
			<point x="407" y="621" type="curve" smooth="yes"/>
			<point x="469" y="651"/>
			<point x="412" y="747"/>
			<point x="311" y="688" type="curve" smooth="yes"/>
			<point x="145" y="591"/>
			<point x="60" y="444"/>
			<point x="60" y="266" type="curve" smooth="yes"/>
			<point x="60" y="100"/>
			<point x="155" y="-10"/>
		</contour>
		<contour>
			<point x="270" y="80" type="curve" smooth="yes"/>
			<point x="216" y="80"/>
			<point x="175" y="154"/>
			<point x="175" y="267" type="curve" smooth="yes"/>
			<point x="175" y="335"/>
			<point x="220" y="380"/>
			<point x="269" y="380" type="curve" smooth="yes"/>
			<point x="324" y="380"/>
			<point x="365" y="320"/>
			<point x="365" y="230" type="curve" smooth="yes"/>
			<point x="365" y="140"/>
			<point x="324" y="80"/>
		</contour>
	</outline>
</glyph>
<glyph name="seven" format="2">
	<advance width="495"/>
	<unicode hex="0037"/>
	<outline>
		<contour>
			<point x="266" y="38" type="curve" smooth="yes"/>
			<point x="437" y="600" type="line" smooth="yes"/>
			<point x="456" y="664"/>
			<point x="439" y="700"/>
			<point x="363" y="700" type="curve" smooth="yes"/>
			<point x="100" y="700" type="line" smooth="yes"/>
			<point x="64" y="700"/>
			<point x="40" y="683"/>
			<point x="40" y="650" type="curve" smooth="yes"/>
			<point x="40" y="617"/>
			<point x="64" y="600"/>
			<point x="100" y="600" type="curve" smooth="yes"/>
			<point x="303" y="600" type="line"/>
			<point x="298" y="605" type="line"/>
			<point x="311" y="582" type="line"/>
			<point x="304" y="599" type="line"/>
			<point x="149" y="80" type="line" smooth="yes"/>
			<point x="119" y="-19"/>
			<point x="242" y="-42"/>
		</contour>
	</outline>
</glyph>
<glyph name="eight" format="2">
	<advance width="532"/>
	<unicode hex="0038"/>
	<outline>
		<contour>
			<point x="268" y="-10" type="curve"/>
			<point x="268" y="-10" type="line"/>
			<point x="393" y="-10"/>
			<point x="477" y="76"/>
			<point x="477" y="205" type="curve"/>
			<point x="477" y="316"/>
			<point x="393" y="396"/>
			<point x="268" y="396" type="curve"/>
			<point x="140" y="396"/>
			<point x="55" y="316"/>
			<point x="55" y="205" type="curve"/>
			<point x="55" y="76"/>
			<point x="140" y="-10"/>
		</contour>
		<contour>
			<point x="268" y="81" type="curve"/>
			<point x="268" y="81" type="line"/>
			<point x="209" y="81"/>
			<point x="170" y="131"/>
			<point x="170" y="205" type="curve"/>
			<point x="170" y="287"/>
			<point x="209" y="334"/>
			<point x="268" y="334" type="curve"/>
			<point x="324" y="334"/>
			<point x="362" y="287"/>
			<point x="362" y="205" type="curve"/>
			<point x="362" y="131"/>
			<point x="324" y="81"/>
		</contour>
		<contour>
			<point x="268" y="411" type="curve" smooth="yes"/>
			<point x="221" y="411"/>
			<point x="190" y="451"/>
			<point x="190" y="519" type="curve" smooth="yes"/>
			<point x="190" y="578"/>
			<point x="221" y="618"/>
			<point x="268" y="618" type="curve" smooth="yes"/>
			<point x="312" y="618"/>
			<point x="342" y="578"/>
			<point x="342" y="519" type="curve" smooth="yes"/>
			<point x="342" y="451"/>
			<point x="312" y="411"/>
		</contour>
		<contour>
			<point x="268" y="353" type="curve"/>
			<point x="268" y="353" type="line"/>
			<point x="381" y="353"/>
			<point x="457" y="423"/>
			<point x="457" y="519" type="curve"/>
			<point x="457" y="633"/>
			<point x="381" y="709"/>
			<point x="268" y="709" type="curve"/>
			<point x="152" y="709"/>
			<point x="75" y="633"/>
			<point x="75" y="519" type="curve"/>
			<point x="75" y="423"/>
			<point x="152" y="353"/>
		</contour>
	</outline>
</glyph>
<glyph name="nine" format="2">
	<advance width="600"/>
	<unicode hex="0039"/>
	<outline>
		<contour>
			<point x="228" y="0" type="curve" smooth="yes"/>
			<point x="420" y="0"/>
			<point x="510" y="175"/>
			<point x="510" y="437" type="curve" smooth="yes"/>
			<point x="510" y="603"/>
			<point x="424" y="713"/>
			<point x="295" y="713" type="curve" smooth="yes"/>
			<point x="172" y="713"/>
			<point x="90" y="623"/>
			<point x="90" y="487" type="curve" smooth="yes"/>
			<point x="90" y="359"/>
			<point x="150" y="273"/>
			<point x="240" y="273" type="curve" smooth="yes"/>
			<point x="308" y="273"/>
			<point x="361" y="306"/>
			<point x="389" y="362" type="curve"/>
			<point x="392" y="360" type="line"/>
			<point x="378" y="189"/>
			<point x="313" y="108"/>
			<point x="222" y="108" type="curve" smooth="yes"/>
			<point x="133" y="108"/>
			<point x="133" y="0"/>
		</contour>
		<contour>
			<point x="301" y="363" type="curve" smooth="yes"/>
			<point x="243" y="363"/>
			<point x="205" y="415"/>
			<point x="205" y="493" type="curve" smooth="yes"/>
			<point x="205" y="571"/>
			<point x="243" y="623"/>
			<point x="300" y="623" type="curve" smooth="yes"/>
			<point x="356" y="623"/>
			<point x="395" y="557"/>
			<point x="395" y="441" type="curve" smooth="yes"/>
			<point x="395" y="394"/>
			<point x="353" y="363"/>
		</contour>
	</outline>
</glyph>
<glyph name="C" format="2">
	<advance width="537"/>
	<unicode hex="0043"/>
	<guideline x="87" y="129" angle="90"/>
	<outline>
		<contour>
			<point x="320" y="-10" type="curve" smooth="yes"/>
			<point x="447" y="-10"/>
			<point x="515" y="61"/>
			<point x="528" y="148" type="curve" smooth="yes"/>
			<point x="533" y="183"/>
			<point x="517" y="209"/>
			<point x="489" y="213" type="curve" smooth="yes"/>
			<point x="452" y="218"/>
			<point x="431" y="198"/>
			<point x="419" y="164" type="curve" smooth="yes"/>
			<point x="407" y="129"/>
			<point x="383" y="99"/>
			<point x="322" y="99" type="curve" smooth="yes"/>
			<point x="212" y="99"/>
			<point x="185" y="194"/>
			<point x="185" y="350" type="curve" smooth="yes"/>
			<point x="185" y="558"/>
			<point x="235" y="610"/>
			<point x="320" y="610" type="curve" smooth="yes"/>
			<point x="391" y="610"/>
			<point x="411" y="578"/>
			<point x="436" y="564" type="curve"/>
			<point x="430" y="620" type="line"/>
			<point x="413" y="596"/>
			<point x="403" y="562"/>
			<point x="403" y="530" type="curve" smooth="yes"/>
			<point x="403" y="475"/>
			<point x="434" y="448"/>
			<point x="464" y="448" type="curve" smooth="yes"/>
			<point x="493" y="448"/>
			<point x="522" y="474"/>
			<point x="522" y="525" type="curve" smooth="yes"/>
			<point x="522" y="653"/>
			<point x="450" y="710"/>
			<point x="320" y="710" type="curve" smooth="yes"/>
			<point x="114" y="710"/>
			<point x="65" y="566"/>
			<point x="65" y="350" type="curve" smooth="yes"/>
			<point x="65" y="62"/>
			<point x="163" y="-10"/>
		</contour>
	</outline>
</glyph>
<glyph name="I" format="2">
	<advance width="280"/>
	<unicode hex="0049"/>
	<anchor x="140" y="700" name="top"/>
	<outline>
		<contour>
			<point x="140" y="-10" type="curve" smooth="yes"/>
			<point x="176" y="-10"/>
			<point x="200" y="18"/>
			<point x="200" y="60" type="curve" smooth="yes"/>
			<point x="200" y="640" type="line" smooth="yes"/>
			<point x="200" y="682"/>
			<point x="176" y="710"/>
			<point x="140" y="710" type="curve" smooth="yes"/>
			<point x="104" y="710"/>
			<point x="80" y="682"/>
			<point x="80" y="640" type="curve" smooth="yes"/>
			<point x="80" y="60" type="line" smooth="yes"/>
			<point x="80" y="18"/>
			<point x="104" y="-10"/>
		</contour>
	</outline>
</glyph>
<glyph name="P" format="2">
	<advance width="560"/>
	<unicode hex="0050"/>
	<outline>
		<contour>
			<point x="130" y="-10" type="curve" smooth="yes"/>
			<point x="166" y="-10"/>
			<point x="190" y="18"/>
			<point x="190" y="60" type="curve" smooth="yes"/>
			<point x="190" y="629" type="line"/>
			<point x="143" y="581" type="line"/>
			<point x="173" y="602"/>
			<point x="206" y="606"/>
			<point x="260" y="606" type="curve" smooth="yes"/>
			<point x="341" y="606"/>
			<point x="400" y="550"/>
			<point x="400" y="460" type="curve" smooth="yes"/>
			<point x="400" y="370"/>
			<point x="366" y="335"/>
			<point x="295" y="320" type="curve" smooth="yes"/>
			<point x="260" y="313"/>
			<point x="236" y="300"/>
			<point x="236" y="270" type="curve" smooth="yes"/>
			<point x="236" y="240"/>
			<point x="260" y="220"/>
			<point x="296" y="220" type="curve" smooth="yes"/>
			<point x="433" y="220"/>
			<point x="520" y="318"/>
			<point x="520" y="466" type="curve" smooth="yes"/>
			<point x="520" y="612"/>
			<point x="430" y="710"/>
			<point x="257" y="710" type="curve" smooth="yes"/>
			<point x="167" y="710"/>
			<point x="70" y="693"/>
			<point x="70" y="619" type="curve" smooth="yes"/>
			<point x="70" y="60" type="line" smooth="yes"/>
			<point x="70" y="18"/>
			<point x="94" y="-10"/>
		</contour>
	</outline>
</glyph>
<glyph name="S" format="2">
	<advance width="528"/>
	<unicode hex="0053"/>
	<outline>
		<contour>
			<point x="261" y="-9" type="curve" smooth="yes"/>
			<point x="394" y="-9"/>
			<point x="488" y="73"/>
			<point x="488" y="187" type="curve" smooth="yes"/>
			<point x="488" y="396"/>
			<point x="172" y="343"/>
			<point x="172" y="502" type="curve" smooth="yes"/>
			<point x="172" y="560"/>
			<point x="223" y="610"/>
			<point x="290" y="610" type="curve" smooth="yes"/>
			<point x="338" y="610"/>
			<point x="399" y="590"/>
			<point x="399" y="537" type="curve"/>
			<point x="399" y="578" type="line"/>
			<point x="364" y="578"/>
			<point x="345" y="549"/>
			<point x="345" y="520" type="curve" smooth="yes"/>
			<point x="345" y="489"/>
			<point x="368" y="459"/>
			<point x="412" y="459" type="curve" smooth="yes"/>
			<point x="448" y="459"/>
			<point x="481" y="490"/>
			<point x="481" y="549" type="curve" smooth="yes"/>
			<point x="481" y="647"/>
			<point x="397" y="710"/>
			<point x="275" y="710" type="curve" smooth="yes"/>
			<point x="125" y="710"/>
			<point x="49" y="605"/>
			<point x="49" y="502" type="curve" smooth="yes"/>
			<point x="49" y="256"/>
			<point x="365" y="291"/>
			<point x="365" y="181" type="curve" smooth="yes"/>
			<point x="365" y="124"/>
			<point x="320" y="91"/>
			<point x="266" y="91" type="curve" smooth="yes"/>
			<point x="144" y="91"/>
			<point x="130" y="177"/>
			<point x="82" y="177" type="curve" smooth="yes"/>
			<point x="54" y="177"/>
			<point x="38" y="155"/>
			<point x="38" y="128" type="curve" smooth="yes"/>
			<point x="38" y="49"/>
			<point x="156" y="-9"/>
		</contour>
	</outline>
</glyph>
<glyph name="T" format="2">
	<advance width="444"/>
	<unicode hex="0054"/>
	<outline>
		<contour>
			<point x="221" y="-10" type="curve" smooth="yes"/>
			<point x="257" y="-10"/>
			<point x="282" y="18"/>
			<point x="282" y="60" type="curve" smooth="yes"/>
			<point x="282" y="613" type="line"/>
			<point x="162" y="613" type="line"/>
			<point x="162" y="60" type="line" smooth="yes"/>
			<point x="162" y="18"/>
			<point x="186" y="-10"/>
		</contour>
		<contour>
			<point x="39" y="600" type="curve" smooth="yes"/>
			<point x="405" y="600" type="line" smooth="yes"/>
			<point x="440" y="600"/>
			<point x="464" y="620"/>
			<point x="464" y="650" type="curve" smooth="yes"/>
			<point x="464" y="680"/>
			<point x="440" y="700"/>
			<point x="404" y="700" type="curve"/>
			<point x="40" y="700" type="line"/>
			<point x="4" y="700"/>
			<point x="-20" y="680"/>
			<point x="-20" y="650" type="curve" smooth="yes"/>
			<point x="-20" y="620"/>
			<point x="4" y="600"/>
		</contour>
	</outline>
</glyph>
<glyph name="U" format="2">
	<advance width="610"/>
	<unicode hex="0055"/>
	<anchor x="305" y="700" name="top"/>
	<outline>
		<contour>
			<point x="305" y="-10" type="curve" smooth="yes"/>
			<point x="447" y="-10"/>
			<point x="545" y="84"/>
			<point x="545" y="271" type="curve" smooth="yes"/>
			<point x="545" y="640" type="line" smooth="yes"/>
			<point x="545" y="682"/>
			<point x="521" y="710"/>
			<point x="485" y="710" type="curve" smooth="yes"/>
			<point x="449" y="710"/>
			<point x="425" y="682"/>
			<point x="425" y="640" type="curve" smooth="yes"/>
			<point x="425" y="271" type="line" smooth="yes"/>
			<point x="425" y="141"/>
			<point x="373" y="90"/>
			<point x="305" y="90" type="curve" smooth="yes"/>
			<point x="237" y="90"/>
			<point x="185" y="141"/>
			<point x="185" y="271" type="curve" smooth="yes"/>
			<point x="185" y="640" type="line" smooth="yes"/>
			<point x="185" y="682"/>
			<point x="161" y="710"/>
			<point x="125" y="710" type="curve" smooth="yes"/>
			<point x="89" y="710"/>
			<point x="65" y="682"/>
			<point x="65" y="640" type="curve" smooth="yes"/>
			<point x="65" y="271" type="line" smooth="yes"/>
			<point x="65" y="84"/>
			<point x="163" y="-10"/>
		</contour>
	</outline>
</glyph>
<glyph name="Z" format="2">
	<advance width="511"/>
	<unicode hex="005A"/>
	<outline>
		<contour>
			<point x="128" y="0" type="curve" smooth="yes"/>
			<point x="411" y="0" type="line" smooth="yes"/>
			<point x="447" y="0"/>
			<point x="471" y="17"/>
			<point x="471" y="50" type="curve" smooth="yes"/>
			<point x="471" y="83"/>
			<point x="447" y="100"/>
			<point x="411" y="100" type="curve" smooth="yes"/>
			<point x="189" y="100" type="line"/>
			<point x="191" y="85" type="line"/>
			<point x="191" y="188" type="line"/>
			<point x="189" y="107" type="line"/>
			<point x="448" y="600" type="line" smooth="yes"/>
			<point x="479" y="660"/>
			<point x="450" y="700"/>
			<point x="374" y="700" type="curve" smooth="yes"/>
			<point x="111" y="700" type="line" smooth="yes"/>
			<point x="75" y="700"/>
			<point x="51" y="683"/>
			<point x="51" y="650" type="curve" smooth="yes"/>
			<point x="51" y="617"/>
			<point x="75" y="600"/>
			<point x="111" y="600" type="curve" smooth="yes"/>
			<point x="314" y="600" type="line"/>
			<point x="311" y="615" type="line"/>
			<point x="312" y="515" type="line"/>
			<point x="314" y="595" type="line"/>
			<point x="53" y="101" type="line" smooth="yes"/>
			<point x="21" y="40"/>
			<point x="51" y="0"/>
		</contour>
	</outline>
</glyph>
<glyph name="underscore" format="2">
	<advance width="398"/>
	<unicode hex="005F"/>
	<outline>
		<contour>
			<point x="96" y="0" type="curve" smooth="yes"/>
			<point x="302" y="0" type="line" smooth="yes"/>
			<point x="342" y="0"/>
			<point x="368" y="22"/>
			<point x="368" y="55" type="curve" smooth="yes"/>
			<point x="368" y="88"/>
			<point x="342" y="110"/>
			<point x="301" y="110" type="curve" smooth="yes"/>
			<point x="97" y="110" type="line" smooth="yes"/>
			<point x="57" y="110"/>
			<point x="30" y="88"/>
			<point x="30" y="55" type="curve" smooth="yes"/>
			<point x="30" y="22"/>
			<point x="57" y="0"/>
		</contour>
	</outline>
</glyph>
<glyph name="f" format="2">
	<advance width="376"/>
	<unicode hex="0066"/>
	<guideline x="376" y="512" angle="90"/>
	<outline>
		<contour>
			<point x="171" y="-10" type="curve" smooth="yes"/>
			<point x="204" y="-10"/>
			<point x="226" y="18"/>
			<point x="226" y="60" type="curve" smooth="yes"/>
			<point x="226" y="584" type="line" smooth="yes"/>
			<point x="226" y="639"/>
			<point x="249" y="675"/>
			<point x="283" y="675" type="curve" smooth="yes"/>
			<point x="314" y="675"/>
			<point x="334" y="659"/>
			<point x="334" y="636" type="curve"/>
			<point x="366" y="728" type="line"/>
			<point x="330" y="728"/>
			<point x="306" y="708"/>
			<point x="306" y="677" type="curve" smooth="yes"/>
			<point x="306" y="642"/>
			<point x="328" y="619"/>
			<point x="361" y="619" type="curve" smooth="yes"/>
			<point x="394" y="619"/>
			<point x="416" y="642"/>
			<point x="416" y="677" type="curve" smooth="yes"/>
			<point x="416" y="727"/>
			<point x="358" y="760"/>
			<point x="270" y="760" type="curve" smooth="yes"/>
			<point x="178" y="760"/>
			<point x="116" y="684"/>
			<point x="116" y="570" type="curve" smooth="yes"/>
			<point x="116" y="60" type="line" smooth="yes"/>
			<point x="116" y="18"/>
			<point x="138" y="-10"/>
		</contour>
		<contour>
			<point x="84" y="410" type="curve" smooth="yes"/>
			<point x="301" y="410" type="line" smooth="yes"/>
			<point x="333" y="410"/>
			<point x="355" y="428"/>
			<point x="355" y="455" type="curve" smooth="yes"/>
			<point x="355" y="482"/>
			<point x="333" y="500"/>
			<point x="300" y="500" type="curve" smooth="yes"/>
			<point x="85" y="500" type="line" smooth="yes"/>
			<point x="52" y="500"/>
			<point x="30" y="482"/>
			<point x="30" y="455" type="curve" smooth="yes"/>
			<point x="30" y="428"/>
			<point x="52" y="410"/>
		</contour>
	</outline>
</glyph>
<glyph name="g" format="2">
	<advance width="506"/>
	<unicode hex="0067"/>
	<outline>
		<contour>
			<point x="251" y="-210" type="curve" smooth="yes"/>
			<point x="371" y="-210"/>
			<point x="451" y="-152"/>
			<point x="451" y="-64" type="curve" smooth="yes"/>
			<point x="451" y="102"/>
			<point x="217" y="42"/>
			<point x="217" y="104" type="curve" smooth="yes"/>
			<point x="217" y="121"/>
			<point x="233" y="132"/>
			<point x="256" y="132" type="curve" smooth="yes"/>
			<point x="370" y="132"/>
			<point x="446" y="208"/>
			<point x="446" y="321" type="curve" smooth="yes"/>
			<point x="446" y="394"/>
			<point x="420" y="428"/>
			<point x="400" y="452" type="curve" smooth="yes"/>
			<point x="395" y="458"/>
			<point x="390" y="468"/>
			<point x="390" y="480" type="curve" smooth="yes"/>
			<point x="390" y="490"/>
			<point x="394" y="501"/>
			<point x="404" y="512" type="curve"/>
			<point x="413" y="504"/>
			<point x="425" y="499"/>
			<point x="439" y="499" type="curve" smooth="yes"/>
			<point x="473" y="499"/>
			<point x="496" y="524"/>
			<point x="496" y="562" type="curve" smooth="yes"/>
			<point x="496" y="599"/>
			<point x="473" y="624"/>
			<point x="439" y="624" type="curve" smooth="yes"/>
			<point x="392" y="624"/>
			<point x="349" y="583"/>
			<point x="349" y="488" type="curve"/>
			<point x="346" y="486" type="line"/>
			<point x="329" y="499"/>
			<point x="292" y="510"/>
			<point x="256" y="510" type="curve" smooth="yes"/>
			<point x="141" y="510"/>
			<point x="64" y="434"/>
			<point x="64" y="321" type="curve" smooth="yes"/>
			<point x="64" y="237"/>
			<point x="122" y="179"/>
			<point x="195" y="152" type="curve"/>
			<point x="195" y="146" type="line"/>
			<point x="146" y="141"/>
			<point x="102" y="117"/>
			<point x="102" y="77" type="curve" smooth="yes"/>
			<point x="102" y="-40"/>
			<point x="337" y="15"/>
			<point x="337" y="-71" type="curve" smooth="yes"/>
			<point x="337" y="-100"/>
			<point x="292" y="-120"/>
			<point x="225" y="-120" type="curve" smooth="yes"/>
			<point x="191" y="-120"/>
			<point x="162" y="-113"/>
			<point x="140" y="-99" type="curve"/>
			<point x="147" y="-92"/>
			<point x="150" y="-82"/>
			<point x="150" y="-71" type="curve" smooth="yes"/>
			<point x="150" y="-43"/>
			<point x="128" y="-25"/>
			<point x="95" y="-25" type="curve" smooth="yes"/>
			<point x="62" y="-25"/>
			<point x="40" y="-43"/>
			<point x="40" y="-71" type="curve" smooth="yes"/>
			<point x="40" y="-154"/>
			<point x="124" y="-210"/>
		</contour>
		<contour>
			<point x="258" y="217" type="curve" smooth="yes"/>
			<point x="208" y="217"/>
			<point x="174" y="259"/>
			<point x="174" y="321" type="curve" smooth="yes"/>
			<point x="174" y="383"/>
			<point x="207" y="425"/>
			<point x="256" y="425" type="curve" smooth="yes"/>
			<point x="304" y="425"/>
			<point x="336" y="383"/>
			<point x="336" y="321" type="curve" smooth="yes"/>
			<point x="336" y="259"/>
			<point x="305" y="217"/>
		</contour>
	</outline>
</glyph>
<glyph name="k" format="2">
	<advance width="462"/>
	<unicode hex="006B"/>
	<guideline x="293" y="485" angle="238.2175"/>
	<guideline x="375" y="350" angle="238.2175"/>
	<guideline x="285" y="280" angle="305.0316"/>
	<guideline x="167" y="280" angle="305.0316"/>
	<outline>
		<contour>
			<point x="409" y="-10" type="curve" smooth="yes"/>
			<point x="437" y="-10"/>
			<point x="460" y="9"/>
			<point x="460" y="38" type="curve" smooth="yes"/>
			<point x="460" y="55"/>
			<point x="452" y="76"/>
			<point x="433" y="99" type="curve" smooth="yes"/>
			<point x="286" y="275" type="line"/>
			<point x="276" y="252" type="line"/>
			<point x="435" y="419" type="line" smooth="yes"/>
			<point x="447" y="431"/>
			<point x="452" y="446"/>
			<point x="452" y="461" type="curve" smooth="yes"/>
			<point x="452" y="487"/>
			<point x="433" y="510"/>
			<point x="397" y="510" type="curve" smooth="yes"/>
			<point x="377" y="510"/>
			<point x="360" y="496"/>
			<point x="341" y="474" type="curve" smooth="yes"/>
			<point x="163" y="260" type="line"/>
			<point x="344" y="25" type="line" smooth="yes"/>
			<point x="363" y="1"/>
			<point x="387" y="-10"/>
		</contour>
		<contour>
			<point x="118" y="-10" type="curve" smooth="yes"/>
			<point x="151" y="-10"/>
			<point x="175" y="11"/>
			<point x="175" y="67" type="curve"/>
			<point x="175" y="683" type="line"/>
			<point x="175" y="739"/>
			<point x="151" y="760"/>
			<point x="121" y="760" type="curve" smooth="yes"/>
			<point x="85" y="760"/>
			<point x="60" y="739"/>
			<point x="60" y="683" type="curve" smooth="yes"/>
			<point x="60" y="67" type="line" smooth="yes"/>
			<point x="60" y="11"/>
			<point x="85" y="-10"/>
		</contour>
	</outline>
</glyph>
<glyph name="u" format="2">
	<advance width="526"/>
	<unicode hex="0075"/>
	<anchor x="265" y="500" name="top"/>
	<outline>
		<contour>
			<point x="410" y="-10" type="curve" smooth="yes"/>
			<point x="443" y="-10"/>
			<point x="465" y="14"/>
			<point x="465" y="50" type="curve"/>
			<point x="465" y="450" type="line" smooth="yes"/>
			<point x="465" y="486"/>
			<point x="443" y="510"/>
			<point x="410" y="510" type="curve" smooth="yes"/>
			<point x="377" y="510"/>
			<point x="355" y="486"/>
			<point x="355" y="450" type="curve" smooth="yes"/>
			<point x="355" y="196" type="line" smooth="yes"/>
			<point x="355" y="130"/>
			<point x="319" y="81"/>
			<point x="265" y="81" type="curve" smooth="yes"/>
			<point x="207" y="81"/>
			<point x="169" y="119"/>
			<point x="169" y="176" type="curve" smooth="yes"/>
			<point x="169" y="450" type="line" smooth="yes"/>
			<point x="169" y="486"/>
			<point x="146" y="510"/>
			<point x="112" y="510" type="curve" smooth="yes"/>
			<point x="78" y="510"/>
			<point x="55" y="486"/>
			<point x="55" y="450" type="curve" smooth="yes"/>
			<point x="55" y="169" type="line" smooth="yes"/>
			<point x="55" y="62"/>
			<point x="120" y="-9"/>
			<point x="218" y="-9" type="curve" smooth="yes"/>
			<point x="278" y="-9"/>
			<point x="325" y="18"/>
			<point x="353" y="63" type="curve"/>
			<point x="355" y="63" type="line"/>
			<point x="355" y="50" type="line" smooth="yes"/>
			<point x="355" y="14"/>
			<point x="377" y="-10"/>
		</contour>
	</outline>
</glyph>
<glyph name="x" format="2">
	<advance width="463"/>
	<unicode hex="0078"/>
	<outline>
		<contour>
			<point x="313" y="32" type="line" smooth="yes"/>
			<point x="335" y="1"/>
			<point x="360" y="-12"/>
			<point x="382" y="-12" type="curve" smooth="yes"/>
			<point x="424" y="-12"/>
			<point x="453" y="35"/>
			<point x="415" y="90" type="curve" smooth="yes"/>
			<point x="149" y="469" type="line" smooth="yes"/>
			<point x="127" y="500"/>
			<point x="102" y="513"/>
			<point x="81" y="513" type="curve" smooth="yes"/>
			<point x="40" y="513"/>
			<point x="12" y="467"/>
			<point x="48" y="415" type="curve" smooth="yes"/>
		</contour>
		<contour>
			<point x="25" y="70" type="line" smooth="yes"/>
			<point x="-2" y="32"/>
			<point x="34" y="-11"/>
			<point x="66" y="-11" type="curve" smooth="yes"/>
			<point x="82" y="-11"/>
			<point x="100" y="-3"/>
			<point x="114" y="16" type="curve" smooth="yes"/>
			<point x="291" y="262" type="line"/>
			<point x="168" y="272" type="line"/>
		</contour>
		<contour>
			<point x="161" y="234" type="line"/>
			<point x="281" y="224" type="line"/>
			<point x="427" y="428" type="line" smooth="yes"/>
			<point x="453" y="465"/>
			<point x="418" y="510"/>
			<point x="385" y="510" type="curve" smooth="yes"/>
			<point x="370" y="510"/>
			<point x="353" y="502"/>
			<point x="339" y="483" type="curve" smooth="yes"/>
		</contour>
	</outline>
</glyph>
<glyph name="Idieresis" format="2">
	<advance width="280"/>
	<unicode hex="00CF"/>
	<anchor x="140" y="700" name="_top"/>
	<outline>
		<contour>
			<point x="226" y="773" type="curve" smooth="yes"/>
			<point x="267" y="773"/>
			<point x="294" y="801"/>
			<point x="294" y="843" type="curve" smooth="yes"/>
			<point x="294" y="883"/>
			<point x="267" y="909"/>
			<point x="226" y="909" type="curve" smooth="yes"/>
			<point x="186" y="909"/>
			<point x="159" y="882"/>
			<point x="159" y="842" type="curve" smooth="yes"/>
			<point x="159" y="801"/>
			<point x="186" y="773"/>
		</contour>
		<contour>
			<point x="53" y="773" type="curve" smooth="yes"/>
			<point x="94" y="773"/>
			<point x="121" y="801"/>
			<point x="121" y="843" type="curve" smooth="yes"/>
			<point x="121" y="883"/>
			<point x="94" y="909"/>
			<point x="53" y="909" type="curve" smooth="yes"/>
			<point x="13" y="909"/>
			<point x="-14" y="882"/>
			<point x="-14" y="842" type="curve" smooth="yes"/>
			<point x="-14" y="801"/>
			<point x="13" y="773"/>
		</contour>
		<component base="I"/>
	</outline>
</glyph>
<glyph name="fi" format="2">
	<advance width="583"/>
	<unicode hex="FB01"/>
	<outline>
		<contour>
			<point x="30" y="455" type="curve" smooth="yes"/>
			<point x="30" y="428"/>
			<point x="52" y="410"/>
			<point x="84" y="410" type="curve" smooth="yes"/>
			<point x="116" y="410" type="line"/>
			<point x="116" y="60" type="line" smooth="yes"/>
			<point x="116" y="18"/>
			<point x="138" y="-10"/>
			<point x="171" y="-10" type="curve" smooth="yes"/>
			<point x="204" y="-10"/>
			<point x="226" y="18"/>
			<point x="226" y="60" type="curve" smooth="yes"/>
			<point x="226" y="410" type="line"/>
			<point x="412" y="410" type="line"/>
			<point x="412" y="49" type="line" smooth="yes"/>
			<point x="412" y="16"/>
			<point x="434" y="-11"/>
			<point x="467" y="-11" type="curve" smooth="yes"/>
			<point x="500" y="-11"/>
			<point x="522" y="16"/>
			<point x="522" y="49" type="curve" smooth="yes"/>
			<point x="522" y="440" type="line" smooth="yes"/>
			<point x="522" y="476"/>
			<point x="505" y="500"/>
			<point x="470" y="500" type="curve" smooth="yes"/>
			<point x="226" y="500" type="line"/>
			<point x="226" y="563" type="line" smooth="yes"/>
			<point x="226" y="643"/>
			<point x="285" y="685"/>
			<point x="337" y="685" type="curve" smooth="yes"/>
			<point x="359" y="685"/>
			<point x="382" y="678"/>
			<point x="399" y="663" type="curve"/>
			<point x="397" y="657"/>
			<point x="396" y="651"/>
			<point x="396" y="644" type="curve" smooth="yes"/>
			<point x="396" y="609"/>
			<point x="419" y="581"/>
			<point x="457" y="581" type="curve" smooth="yes"/>
			<point x="495" y="581"/>
			<point x="518" y="604"/>
			<point x="518" y="644" type="curve" smooth="yes"/>
			<point x="518" y="710"/>
			<point x="425" y="759"/>
			<point x="327" y="759" type="curve" smooth="yes"/>
			<point x="217" y="759"/>
			<point x="116" y="700"/>
			<point x="116" y="539" type="curve" smooth="yes"/>
			<point x="116" y="500" type="line"/>
			<point x="85" y="500" type="line" smooth="yes"/>
			<point x="52" y="500"/>
			<point x="30" y="482"/>
		</contour>
	</outline>
</glyph>
<glyph name=".notdef" format="2">
	<advance width="766"/>
	<outline>
		<contour>
			<point x="380" y="29" type="curve" smooth="yes"/>
			<point x="497" y="29"/>
			<point x="568" y="100"/>
			<point x="568" y="183" type="curve" smooth="yes"/>
			<point x="568" y="249"/>
			<point x="533" y="302"/>
			<point x="497" y="347" type="curve" smooth="yes"/>
			<point x="467" y="385"/>
			<point x="439" y="418"/>
			<point x="380" y="418" type="curve" smooth="yes"/>
			<point x="321" y="418"/>
			<point x="293" y="385"/>
			<point x="263" y="347" type="curve" smooth="yes"/>
			<point x="227" y="302"/>
			<point x="192" y="249"/>
			<point x="192" y="183" type="curve" smooth="yes"/>
			<point x="192" y="100"/>
			<point x="263" y="29"/>
		</contour>
		<contour>
			<point x="127" y="290" type="curve" smooth="yes"/>
			<point x="181" y="290"/>
			<point x="204" y="330"/>
			<point x="204" y="374" type="curve" smooth="yes"/>
			<point x="204" y="424"/>
			<point x="166" y="472"/>
			<point x="118" y="472" type="curve" smooth="yes"/>
			<point x="73" y="472"/>
			<point x="43" y="437"/>
			<point x="43" y="390" type="curve" smooth="yes"/>
			<point x="43" y="340"/>
			<point x="78" y="290"/>
		</contour>
		<contour>
			<point x="278" y="451" type="curve" smooth="yes"/>
			<point x="325" y="451"/>
			<point x="354" y="483"/>
			<point x="354" y="533" type="curve" smooth="yes"/>
			<point x="354" y="584"/>
			<point x="317" y="650"/>
			<point x="270" y="650" type="curve" smooth="yes"/>
			<point x="206" y="650"/>
			<point x="193" y="596"/>
			<point x="193" y="549" type="curve" smooth="yes"/>
			<point x="193" y="497"/>
			<point x="230" y="451"/>
		</contour>
		<contour>
			<point x="639" y="275" type="curve" smooth="yes"/>
			<point x="689" y="275"/>
			<point x="723" y="322"/>
			<point x="723" y="371" type="curve" smooth="yes"/>
			<point x="723" y="414"/>
			<point x="696" y="455"/>
			<point x="646" y="455" type="curve" smooth="yes"/>
			<point x="599" y="455"/>
			<point x="562" y="410"/>
			<point x="562" y="359" type="curve" smooth="yes"/>
			<point x="562" y="315"/>
			<point x="586" y="275"/>
		</contour>
		<contour>
			<point x="481" y="442" type="curve" smooth="yes"/>
			<point x="529" y="442"/>
			<point x="566" y="489"/>
			<point x="566" y="540" type="curve" smooth="yes"/>
			<point x="566" y="587"/>
			<point x="553" y="641"/>
			<point x="489" y="641" type="curve" smooth="yes"/>
			<point x="442" y="641"/>
			<point x="405" y="576"/>
			<point x="405" y="525" type="curve" smooth="yes"/>
			<point x="405" y="475"/>
			<point x="434" y="442"/>
		</contour>
	</outline>
</glyph>
<glyph name="a.salt" format="2">
	<advance width="520"/>
	<anchor x="473" y="10" name="ogonek"/>
	<anchor x="277" y="0" name="bottom"/>
	<anchor x="277" y="500" name="top"/>
	<outline>
		<contour>
			<point x="410" y="-11" type="curve" smooth="yes"/>
			<point x="443" y="-11"/>
			<point x="465" y="13"/>
			<point x="465" y="49" type="curve" smooth="yes"/>
			<point x="465" y="456" type="line"/>
			<point x="415" y="492"/>
			<point x="342" y="510"/>
			<point x="288" y="510" type="curve" smooth="yes"/>
			<point x="151" y="510"/>
			<point x="55" y="402"/>
			<point x="55" y="231" type="curve" smooth="yes"/>
			<point x="55" y="74"/>
			<point x="130" y="-10"/>
			<point x="242" y="-10" type="curve" smooth="yes"/>
			<point x="293" y="-10"/>
			<point x="331" y="20"/>
			<point x="353" y="71" type="curve"/>
			<point x="355" y="71" type="line"/>
			<point x="355" y="49" type="line" smooth="yes"/>
			<point x="355" y="13"/>
			<point x="377" y="-11"/>
		</contour>
		<contour>
			<point x="265" y="80" type="curve" smooth="yes"/>
			<point x="207" y="80"/>
			<point x="169" y="130"/>
			<point x="169" y="235" type="curve" smooth="yes"/>
			<point x="169" y="345"/>
			<point x="211" y="418"/>
			<point x="289" y="418" type="curve" smooth="yes"/>
			<point x="318" y="418"/>
			<point x="352" y="408"/>
			<point x="391" y="386" type="curve"/>
			<point x="355" y="439" type="line"/>
			<point x="355" y="168" type="line" smooth="yes"/>
			<point x="355" y="115"/>
			<point x="319" y="80"/>
		</contour>
	</outline>
</glyph>
<glyph name="acute.case" format="2">
	<advance width="186"/>
	<guideline x="78" y="700" angle="90"/>
	<anchor x="78" y="700" name="_top"/>
	<outline>
		<contour>
			<point x="27" y="747" type="curve" smooth="yes"/>
			<point x="168" y="793" type="line" smooth="yes"/>
			<point x="245" y="818"/>
			<point x="187" y="941"/>
			<point x="102" y="883" type="curve" smooth="yes"/>
			<point x="-6" y="810" type="line" smooth="yes"/>
			<point x="-53" y="778"/>
			<point x="-16" y="733"/>
		</contour>
	</outline>
</glyph>
<glyph name="ampersand.salt" format="2">
	<advance width="631"/>
	<outline>
		<contour>
			<point x="231" y="-10" type="curve" smooth="yes"/>
			<point x="312" y="-10"/>
			<point x="366" y="60"/>
			<point x="366" y="166" type="curve"/>
			<point x="328" y="168" type="line"/>
			<point x="328" y="121"/>
			<point x="298" y="90"/>
			<point x="253" y="90" type="curve" smooth="yes"/>
			<point x="185" y="90"/>
			<point x="140" y="138"/>
			<point x="140" y="210" type="curve" smooth="yes"/>
			<point x="140" y="274"/>
			<point x="186" y="317"/>
			<point x="256" y="317" type="curve"/>
			<point x="529" y="316" type="line"/>
			<point x="565" y="316"/>
			<point x="589" y="336"/>
			<point x="589" y="366" type="curve" smooth="yes"/>
			<point x="589" y="396"/>
			<point x="565" y="416"/>
			<point x="528" y="416" type="curve"/>
			<point x="253" y="416" type="line"/>
			<point x="205" y="416"/>
			<point x="173" y="455"/>
			<point x="173" y="514" type="curve" smooth="yes"/>
			<point x="173" y="578"/>
			<point x="211" y="620"/>
			<point x="269" y="620" type="curve" smooth="yes"/>
			<point x="338" y="620"/>
			<point x="384" y="584"/>
			<point x="384" y="531" type="curve"/>
			<point x="384" y="616" type="line"/>
			<point x="354" y="616"/>
			<point x="334" y="598"/>
			<point x="334" y="571" type="curve" smooth="yes"/>
			<point x="334" y="543"/>
			<point x="356" y="525"/>
			<point x="389" y="525" type="curve" smooth="yes"/>
			<point x="422" y="525"/>
			<point x="444" y="543"/>
			<point x="444" y="571" type="curve" smooth="yes"/>
			<point x="444" y="654"/>
			<point x="364" y="710"/>
			<point x="243" y="710" type="curve" smooth="yes"/>
			<point x="129" y="710"/>
			<point x="53" y="632"/>
			<point x="53" y="514" type="curve" smooth="yes"/>
			<point x="53" y="425"/>
			<point x="115" y="366"/>
			<point x="207" y="366" type="curve"/>
			<point x="207" y="374" type="line"/>
			<point x="95" y="374"/>
			<point x="20" y="302"/>
			<point x="20" y="195" type="curve" smooth="yes"/>
			<point x="20" y="72"/>
			<point x="104" y="-10"/>
		</contour>
		<contour>
			<point x="464" y="-10" type="curve" smooth="yes"/>
			<point x="506" y="-10"/>
			<point x="559" y="6"/>
			<point x="582" y="26" type="curve" smooth="yes"/>
			<point x="636" y="72"/>
			<point x="585" y="136"/>
			<point x="534" y="103" type="curve" smooth="yes"/>
			<point x="518" y="93"/>
			<point x="498" y="90"/>
			<point x="484" y="90" type="curve" smooth="yes"/>
			<point x="459" y="90"/>
			<point x="443" y="110"/>
			<point x="443" y="140" type="curve"/>
			<point x="443" y="341" type="line"/>
			<point x="443" y="381"/>
			<point x="420" y="408"/>
			<point x="385" y="408" type="curve" smooth="yes"/>
			<point x="351" y="408"/>
			<point x="328" y="381"/>
			<point x="328" y="341" type="curve"/>
			<point x="328" y="168" type="line"/>
			<point x="328" y="61"/>
			<point x="382" y="-10"/>
		</contour>
	</outline>
</glyph>
<glyph name="dieresis.case" format="2">
	<advance width="600"/>
	<anchor x="315" y="500" name="_top"/>
	<outline>
		<contour>
			<point x="421" y="573" type="curve" smooth="yes"/>
			<point x="462" y="573"/>
			<point x="489" y="601"/>
			<point x="489" y="643" type="curve" smooth="yes"/>
			<point x="489" y="683"/>
			<point x="462" y="709"/>
			<point x="421" y="709" type="curve" smooth="yes"/>
			<point x="381" y="709"/>
			<point x="354" y="682"/>
			<point x="354" y="642" type="curve" smooth="yes"/>
			<point x="354" y="601"/>
			<point x="381" y="573"/>
		</contour>
		<contour>
			<point x="208" y="573" type="curve" smooth="yes"/>
			<point x="249" y="573"/>
			<point x="276" y="601"/>
			<point x="276" y="643" type="curve" smooth="yes"/>
			<point x="276" y="683"/>
			<point x="249" y="709"/>
			<point x="208" y="709" type="curve" smooth="yes"/>
			<point x="168" y="709"/>
			<point x="141" y="682"/>
			<point x="141" y="642" type="curve" smooth="yes"/>
			<point x="141" y="601"/>
			<point x="168" y="573"/>
		</contour>
	</outline>
</glyph>
<glyph name="k.salt" format="2">
	<advance width="503"/>
	<guideline x="305" y="485" angle="238.2175"/>
	<guideline x="403" y="421" angle="238.2175"/>
	<guideline x="179" y="280" angle="305.0316"/>
	<outline>
		<contour>
			<point x="115" y="-10" type="curve" smooth="yes"/>
			<point x="148" y="-10"/>
			<point x="170" y="14"/>
			<point x="170" y="50" type="curve" smooth="yes"/>
			<point x="170" y="301" type="line" smooth="yes"/>
			<point x="170" y="402"/>
			<point x="228" y="420"/>
			<point x="271" y="420" type="curve" smooth="yes"/>
			<point x="331" y="420"/>
			<point x="362" y="388"/>
			<point x="362" y="340" type="curve" smooth="yes"/>
			<point x="362" y="296"/>
			<point x="336" y="273"/>
			<point x="293" y="266" type="curve" smooth="yes"/>
			<point x="264" y="261"/>
			<point x="250" y="248"/>
			<point x="250" y="221" type="curve" smooth="yes"/>
			<point x="250" y="205"/>
			<point x="257" y="193"/>
			<point x="268" y="180" type="curve" smooth="yes"/>
			<point x="270" y="177"/>
			<point x="275" y="171"/>
			<point x="291" y="147" type="curve" smooth="yes"/>
			<point x="371" y="28" type="line" smooth="yes"/>
			<point x="389" y="1"/>
			<point x="413" y="-10"/>
			<point x="434" y="-10" type="curve" smooth="yes"/>
			<point x="469" y="-10"/>
			<point x="497" y="26"/>
			<point x="464" y="73" type="curve" smooth="yes"/>
			<point x="363" y="218" type="line"/>
			<point x="432" y="235"/>
			<point x="467" y="293"/>
			<point x="467" y="344" type="curve" smooth="yes"/>
			<point x="467" y="444"/>
			<point x="405" y="510"/>
			<point x="312" y="510" type="curve" smooth="yes"/>
			<point x="249" y="510"/>
			<point x="200" y="481"/>
			<point x="172" y="432" type="curve"/>
			<point x="170" y="432" type="line"/>
			<point x="170" y="700" type="line" smooth="yes"/>
			<point x="170" y="736"/>
			<point x="148" y="760"/>
			<point x="115" y="760" type="curve" smooth="yes"/>
			<point x="82" y="760"/>
			<point x="60" y="736"/>
			<point x="60" y="700" type="curve" smooth="yes"/>
			<point x="60" y="50" type="line" smooth="yes"/>
			<point x="60" y="14"/>
			<point x="82" y="-10"/>
		</contour>
	</outline>
</glyph>
<glyph name="tilde.case" format="2">
	<advance width="600"/>
	<anchor x="263" y="700" name="_top"/>
	<outline>
		<contour>
			<point x="122" y="764" type="curve" smooth="yes"/>
			<point x="142" y="764"/>
			<point x="162" y="779"/>
			<point x="162" y="809" type="curve" smooth="yes"/>
			<point x="162" y="819"/>
			<point x="168" y="823"/>
			<point x="179" y="823" type="curve" smooth="yes"/>
			<point x="215" y="823"/>
			<point x="304" y="776"/>
			<point x="369" y="776" type="curve" smooth="yes"/>
			<point x="413" y="776"/>
			<point x="446" y="798"/>
			<point x="446" y="868" type="curve" smooth="yes"/>
			<point x="446" y="899"/>
			<point x="425" y="914"/>
			<point x="405" y="914" type="curve" smooth="yes"/>
			<point x="385" y="914"/>
			<point x="366" y="900"/>
			<point x="366" y="872" type="curve" smooth="yes"/>
			<point x="366" y="862"/>
			<point x="360" y="858"/>
			<point x="350" y="858" type="curve" smooth="yes"/>
			<point x="315" y="858"/>
			<point x="227" y="907"/>
			<point x="161" y="907" type="curve" smooth="yes"/>
			<point x="116" y="907"/>
			<point x="82" y="885"/>
			<point x="82" y="809" type="curve" smooth="yes"/>
			<point x="82" y="779"/>
			<point x="102" y="764"/>
		</contour>
	</outline>
</glyph>
